<svg width="24" height="24" viewBox="0 0 24 24" fill="none" xmlns="http://www.w3.org/2000/svg">
<g clip-path="url(#clip0_186_7700)">
<rect x="13.333" y="15.3334" width="3.33333" height="6.66667" fill="black" fill-opacity="0.24"/>
<path fill-rule="evenodd" clip-rule="evenodd" d="M19.9996 0V2.368C22.7547 3.34207 24.4073 6.15933 23.9132 9.03947C23.419 11.9196 20.9218 14.0249 17.9996 14.0249C15.0774 14.0249 12.5801 11.9196 12.086 9.03947C11.5918 6.15933 13.2445 3.34207 15.9996 2.368V0H19.9996ZM15.9996 8C15.9996 9.10457 16.895 10 17.9996 10C18.53 10 19.0387 9.78929 19.4138 9.41421C19.7889 9.03914 19.9996 8.53043 19.9996 8C19.9996 6.89543 19.1042 6 17.9996 6C16.895 6 15.9996 6.89543 15.9996 8Z" fill="black" fill-opacity="0.24"/>
<rect x="3.33301" y="2" width="3.33333" height="6.66667" fill="black" fill-opacity="0.24"/>
<path fill-rule="evenodd" clip-rule="evenodd" d="M0.0890866 14.9717C0.583699 12.095 3.08099 9.99448 5.99986 10C8.91874 9.99448 11.416 12.095 11.9106 14.9717C12.4052 17.8483 10.753 20.6623 7.99986 21.632V24H3.99986V21.632C1.24677 20.6623 -0.405526 17.8483 0.0890866 14.9717ZM3.99986 16C3.99986 17.1046 4.89529 18 5.99986 18C7.10443 18 7.99986 17.1046 7.99986 16C7.99986 14.8954 7.10443 14 5.99986 14C4.89529 14 3.99986 14.8954 3.99986 16Z" fill="black" fill-opacity="0.24"/>
</g>
<defs>
<clipPath id="clip0_186_7700">
<rect width="24" height="24" fill="white"/>
</clipPath>
</defs>
</svg>
