<svg width="24" height="24" viewBox="0 0 24 24" fill="none" xmlns="http://www.w3.org/2000/svg">
<g clip-path="url(#clip0_187_1841)">
<rect x="13.3333" y="15.3333" width="3.33333" height="6.66667" fill="#0079FF"/>
<path fill-rule="evenodd" clip-rule="evenodd" d="M20 0V2.368C22.7551 3.34207 24.4077 6.15933 23.9136 9.03947C23.4194 11.9196 20.9222 14.0249 18 14.0249C15.0778 14.0249 12.5806 11.9196 12.0864 9.03947C11.5923 6.15933 13.2449 3.34207 16 2.368V0H20ZM16 8C16 9.10457 16.8954 10 18 10C18.5304 10 19.0391 9.78929 19.4142 9.41421C19.7893 9.03914 20 8.53043 20 8C20 6.89543 19.1046 6 18 6C16.8954 6 16 6.89543 16 8Z" fill="#0079FF"/>
<rect x="3.33334" y="2" width="3.33333" height="6.66667" fill="#0079FF"/>
<path fill-rule="evenodd" clip-rule="evenodd" d="M0.089224 14.9717C0.583837 12.095 3.08112 9.99448 6 10C8.91887 9.99448 11.4162 12.095 11.9108 14.9717C12.4054 17.8483 10.7531 20.6623 8 21.632V24H4V21.632C1.2469 20.6623 -0.405389 17.8483 0.089224 14.9717ZM4 16C4 17.1046 4.89543 18 6 18C7.10457 18 8 17.1046 8 16C8 14.8954 7.10457 14 6 14C4.89543 14 4 14.8954 4 16Z" fill="#0079FF"/>
</g>
<defs>
<clipPath id="clip0_187_1841">
<rect width="24" height="24" fill="white"/>
</clipPath>
</defs>
</svg>
